<svg width="132" height="19" viewBox="0 0 132 19" fill="none" xmlns="http://www.w3.org/2000/svg">
<path d="M8.54042 2H14.0208L12.6939 3.82005L8.70401 4.99824C7.95876 5.21805 7.48615 5.89508 7.50433 6.59848V12.4015C7.50433 13.1225 7.97693 13.7819 8.70401 14.0018L12.6939 15.18L14.0208 17H8.54042C6.26829 17 4.40515 15.1975 4.40515 12.9994V6.00059C4.40515 3.80246 6.26829 2 8.54042 2Z" fill="#333333"/>
<path d="M19.6466 2H25.1269C27.4172 2 29.2804 3.80246 29.2622 6.00059V12.9994C29.2622 15.1975 27.4263 17 25.1269 17H19.6466L20.9916 15.18L24.9815 14.0018C25.7086 13.7819 26.1812 13.1225 26.1812 12.4015V6.59848C26.1994 5.89508 25.7268 5.21805 24.9815 4.99824L20.9735 3.82005L19.6466 2Z" fill="#333333"/>
<path d="M20.9917 8.5592H12.7029V10.3617H20.9917V8.5592Z" fill="#333333"/>
<path d="M93.9541 14.8195C95.3174 14.8195 96.4171 13.7819 96.4171 12.4807V12.4015H98.2985V12.4631C98.2803 14.7403 96.3353 16.6043 93.9541 16.6043C91.5548 16.6043 89.6098 14.7403 89.6098 12.4631V6.73916C89.6098 4.4619 91.5548 2.59789 93.9541 2.59789C96.3535 2.59789 98.2985 4.4619 98.2985 6.72157V6.8007H96.4171V6.73916C96.4171 5.46424 95.2992 4.40035 93.9541 4.40035C92.5909 4.40035 91.4912 5.43787 91.4912 6.73916V12.4807C91.4912 13.7556 92.5909 14.8195 93.9541 14.8195Z" fill="#333333"/>
<path fill-rule="evenodd" clip-rule="evenodd" d="M106.178 6.29953C104.197 6.29953 102.534 7.80305 102.452 9.70223V13.228C102.552 15.1272 104.188 16.6307 106.178 16.6307C108.159 16.6307 109.795 15.1272 109.904 13.228V9.70223C109.823 7.80305 108.187 6.29953 106.178 6.29953ZM108.023 12.9994C108.005 14.0018 107.196 14.7843 106.178 14.7843C105.16 14.7843 104.36 14.0018 104.333 12.9994V9.89566C104.333 8.9109 105.16 8.11078 106.178 8.11078C107.196 8.11078 108.023 8.9109 108.023 9.89566V12.9994Z" fill="#333333"/>
<path d="M101.116 2.59789H99.2346V16.4021H101.116V2.59789Z" fill="#333333"/>
<path d="M47.5846 6.29953H49.475V16.3845H47.5846V6.29953Z" fill="#333333"/>
<path d="M45.7306 2.59789H43.8493V16.4021H45.7306V2.59789Z" fill="#333333"/>
<path fill-rule="evenodd" clip-rule="evenodd" d="M36.8056 2.59789L33.0248 16.3845V16.4021H34.888L35.9059 12.7444L40.0411 12.762L41.0318 16.4021V16.4197H42.8949L39.1141 2.59789H36.8056ZM39.5413 10.942H36.3967L37.969 5.21805L39.5413 10.942Z" fill="#333333"/>
<path d="M114.985 14.9865C116.003 14.9865 116.83 14.1864 116.83 13.2016H116.821V6.29953H118.702V16.4021H116.821V15.6635L116.739 15.7427C116.512 15.9625 116.248 16.1383 115.957 16.279C115.794 16.3581 115.621 16.4197 115.439 16.4812C115.13 16.578 114.812 16.6219 114.485 16.6219C112.704 16.6219 111.259 15.2239 111.259 13.5006V6.29953H113.14V13.2016C113.14 14.1864 113.967 14.9865 114.985 14.9865Z" fill="#333333"/>
<path d="M47.5846 2.59789H49.475V4.41794H47.5846V2.59789Z" fill="#333333"/>
<path fill-rule="evenodd" clip-rule="evenodd" d="M53.3013 7.19637C53.9011 6.61606 54.71 6.29953 55.5552 6.29953C57.3366 6.29953 58.7817 7.67995 58.7817 9.42087V13.5182C58.7817 15.2415 57.3366 16.6395 55.5552 16.6395C54.71 16.6395 53.9011 16.323 53.3013 15.7427L53.2195 15.6635V16.4021H51.3382V2.59789H53.2195V7.2755L53.3013 7.19637ZM56.9185 13.1577V9.7374C56.9185 8.75264 56.0915 7.95252 55.0554 7.93494C54.0193 7.93494 53.1922 8.75264 53.1922 9.7374V13.1577C53.1922 14.16 54.0375 14.9601 55.0554 14.9601C56.0915 14.9601 56.9185 14.1424 56.9185 13.1577Z" fill="#333333"/>
<path fill-rule="evenodd" clip-rule="evenodd" d="M73.0051 6.28195C72.1599 6.28195 71.351 6.59848 70.7512 7.17878L70.6694 7.25791V2.59789H68.7881V16.4021H70.6694V15.6635L70.7512 15.7427C71.351 16.323 72.1599 16.6395 73.0051 16.6395C74.7865 16.6395 76.2316 15.2415 76.2316 13.5182V9.39449C76.2316 7.67116 74.7865 6.27315 73.0051 6.27315V6.28195ZM74.3684 9.74619V13.1665C74.3684 14.1512 73.5414 14.9689 72.5053 14.9689C71.4874 14.9689 70.6421 14.1688 70.6421 13.1665V9.74619C70.6421 8.76143 71.4692 7.94373 72.5053 7.94373C73.5414 7.94373 74.3684 8.76143 74.3684 9.74619Z" fill="#333333"/>
<path fill-rule="evenodd" clip-rule="evenodd" d="M125.646 7.25791V2.59789H127.527V16.3669H125.646V15.6284L125.564 15.7075C124.964 16.2878 124.155 16.6043 123.31 16.6043C121.529 16.6043 120.084 15.2239 120.084 13.5006V9.40328C120.084 7.67995 121.529 6.28195 123.31 6.28195C124.155 6.28195 124.964 6.59848 125.564 7.17878L125.646 7.25791ZM125.628 13.1577V9.7374C125.628 8.75264 124.801 7.93494 123.764 7.93494C122.728 7.93494 121.901 8.75264 121.901 9.7374V13.1577C121.901 14.16 122.747 14.9601 123.764 14.9601C124.801 14.9601 125.628 14.1424 125.628 13.1577Z" fill="#333333"/>
<path fill-rule="evenodd" clip-rule="evenodd" d="M67.443 9.71981C67.443 9.6231 67.4248 9.5 67.3975 9.35932V9.31536C67.2976 8.77902 67.0885 8.25147 66.7523 7.79426C66.0888 6.89742 65.08 6.35229 63.9621 6.29074H63.753C62.8805 6.29074 62.0353 6.58968 61.3537 7.13482C60.6902 7.67116 60.2358 8.41852 60.0722 9.25381V9.2714H61.9172V9.25381C62.0808 8.40973 62.8442 7.81184 63.7167 7.81184C64.1893 7.81184 64.6437 7.98769 64.9982 8.31301C65.3526 8.62954 65.5344 9.06917 65.5526 9.53517V10.3792H62.8805C61.0992 10.3792 59.6541 11.7773 59.6541 13.5006C59.6541 14.9426 60.6902 16.1647 62.0717 16.5252C62.0898 16.5252 62.1171 16.5252 62.1171 16.5428C62.1417 16.5496 62.1663 16.5538 62.1903 16.5578C62.2285 16.5643 62.2654 16.5706 62.2989 16.5868C62.3264 16.5944 62.3573 16.5987 62.3902 16.6033C62.4333 16.6093 62.4797 16.6158 62.5261 16.6307H62.5715C62.717 16.6483 62.8805 16.6483 63.0714 16.6483C63.5258 16.6483 63.9166 16.5868 64.1893 16.49C64.6619 16.3494 65.0981 16.0856 65.4708 15.7515L65.5526 15.6723V16.4109H67.4339V9.71981H67.443ZM65.5344 11.7421V13.0258C65.5344 13.9842 64.8073 14.8283 63.8348 15.0041C63.6894 15.0481 63.544 15.0481 63.4168 15.0481C63.0896 15.0481 62.7715 14.9689 62.4625 14.7843C62.4216 14.7623 62.3807 14.7381 62.3398 14.714C62.2989 14.6898 62.258 14.6656 62.2171 14.6436C62.1171 14.5645 62.0081 14.4678 61.9263 14.3623L61.9081 14.3447C61.6809 14.0633 61.5536 13.7204 61.5536 13.3599C61.5718 12.4631 62.3171 11.7421 63.2532 11.7421H65.5344Z" fill="#333333"/>
<path fill-rule="evenodd" clip-rule="evenodd" d="M84.8747 9.35932C84.902 9.5 84.9202 9.6231 84.9202 9.71981H84.9111V16.4109H83.0298V15.6723L82.948 15.7515C82.5753 16.0856 82.1391 16.3494 81.6665 16.49C81.3938 16.5868 81.003 16.6483 80.5486 16.6483C80.3577 16.6483 80.1942 16.6483 80.0487 16.6307H80.0033C79.9569 16.6158 79.9105 16.6093 79.8674 16.6033C79.8346 16.5987 79.8036 16.5944 79.7761 16.5868C79.7426 16.5706 79.7058 16.5643 79.6676 16.5578C79.6435 16.5538 79.6189 16.5496 79.5943 16.5428C79.5943 16.5252 79.5671 16.5252 79.5489 16.5252C78.1674 16.1647 77.1313 14.9426 77.1313 13.5006C77.1313 11.7773 78.5764 10.3792 80.3577 10.3792H83.0298V9.53517C83.0116 9.06917 82.8298 8.62954 82.4754 8.31301C82.1209 7.98769 81.6665 7.81184 81.1939 7.81184C80.3214 7.81184 79.558 8.40973 79.3944 9.25381V9.2714H77.5494V9.25381C77.713 8.41852 78.1674 7.67116 78.8309 7.13482C79.5125 6.58968 80.3577 6.29074 81.2302 6.29074H81.4393C82.5572 6.35229 83.566 6.89742 84.2295 7.79426C84.5657 8.25147 84.7748 8.77902 84.8747 9.31536V9.35932ZM83.0116 11.7421H80.7304C79.7943 11.7421 79.049 12.4807 79.0308 13.3599C79.0308 13.7204 79.1581 14.0633 79.3853 14.3447L79.4035 14.3623C79.4853 14.4678 79.5943 14.5645 79.6943 14.6436C79.7352 14.6656 79.7761 14.6898 79.817 14.714C79.8579 14.7381 79.8988 14.7623 79.9397 14.7843C80.2487 14.9689 80.5668 15.0481 80.894 15.0481C81.0212 15.0481 81.1666 15.0481 81.312 15.0041C82.2845 14.8283 83.0116 13.9842 83.0116 13.0258V11.7421Z" fill="#333333"/>
</svg>
