<svg width="39" height="39" viewBox="0 0 39 39" fill="none" xmlns="http://www.w3.org/2000/svg">
<path d="M12.409 17.1203C12.409 17.5203 12.4523 17.8446 12.5279 18.0824C12.6239 18.35 12.7395 18.6101 12.8738 18.8606C12.9278 18.9471 12.9494 19.0336 12.9494 19.1093C12.9494 19.2173 12.8846 19.3254 12.7441 19.4336L12.0632 19.8875C11.9659 19.9524 11.8686 19.9848 11.782 19.9848C11.674 19.9848 11.5659 19.9307 11.4577 19.8334C11.3121 19.6769 11.1818 19.5068 11.0687 19.3254C10.9605 19.1418 10.8524 18.9363 10.7336 18.6877C9.89044 19.6821 8.83105 20.1794 7.55565 20.1794C6.64774 20.1794 5.92346 19.9199 5.39377 19.4012C4.8642 18.8822 4.59399 18.1904 4.59399 17.3257C4.59399 16.407 4.91826 15.6612 5.57764 15.0991C6.23689 14.537 7.11253 14.256 8.22586 14.256C8.59336 14.256 8.9717 14.2884 9.37158 14.3424C9.77159 14.3965 10.1823 14.4829 10.6147 14.5802V13.7912C10.6147 12.9696 10.4417 12.3968 10.1066 12.0617C9.76076 11.7266 9.17699 11.5644 8.34471 11.5644C7.96637 11.5644 7.57732 11.6077 7.17731 11.705C6.77743 11.8022 6.38825 11.9212 6.00992 12.0725C5.83701 12.1481 5.70732 12.1914 5.63158 12.2131C5.55596 12.2347 5.5019 12.2454 5.45867 12.2454C5.30731 12.2454 5.23169 12.1373 5.23169 11.9103V11.3806C5.23169 11.2077 5.25337 11.078 5.30731 11.0024C5.36138 10.9267 5.45867 10.8511 5.61003 10.7755C5.98837 10.5809 6.44232 10.4187 6.97189 10.289C7.50171 10.1485 8.06379 10.0837 8.65826 10.0837C9.94463 10.0837 10.8851 10.3754 11.4904 10.9592C12.0848 11.5428 12.3876 12.4292 12.3876 13.6183V17.1203H12.4092H12.409ZM8.02044 18.7633C8.37722 18.7633 8.74472 18.6986 9.13377 18.5688C9.52294 18.4391 9.86889 18.2013 10.1606 17.877C10.3337 17.6717 10.4634 17.4447 10.5281 17.1852C10.593 16.9259 10.6363 16.6123 10.6363 16.2448V15.7909C10.3085 15.7111 9.97645 15.6497 9.64178 15.6071C9.30479 15.5643 8.96545 15.5426 8.62575 15.5422C7.90147 15.5422 7.3719 15.6827 7.01524 15.9746C6.65845 16.2665 6.48554 16.6772 6.48554 17.2176C6.48554 17.7256 6.61523 18.104 6.88543 18.3635C7.14492 18.6337 7.52326 18.7633 8.02044 18.7633ZM16.7002 19.9307C16.5056 19.9307 16.376 19.8984 16.2895 19.8226C16.203 19.7578 16.1273 19.6065 16.0625 19.4012L13.5224 11.0457C13.4574 10.8294 13.425 10.6889 13.425 10.6133C13.425 10.4403 13.5115 10.3429 13.6845 10.3429H14.7438C14.9491 10.3429 15.0897 10.3754 15.1653 10.4511C15.2518 10.516 15.3167 10.6673 15.3815 10.8726L17.1974 18.0284L18.8837 10.8726C18.9377 10.6565 19.0026 10.516 19.089 10.4511C19.1755 10.3863 19.3269 10.3431 19.5215 10.3431H20.3862C20.5915 10.3431 20.7321 10.3754 20.8184 10.4511C20.905 10.516 20.9806 10.6673 21.0239 10.8726L22.7318 18.1148L24.6017 10.8726C24.6664 10.6565 24.7422 10.516 24.8178 10.4511C24.9043 10.3863 25.0448 10.3431 25.2394 10.3431H26.2446C26.4176 10.3431 26.5149 10.4295 26.5149 10.6133C26.5149 10.6673 26.504 10.7214 26.4932 10.7862C26.4824 10.8511 26.4608 10.9375 26.4176 11.0565L23.8125 19.4119C23.7477 19.6282 23.6721 19.7687 23.5855 19.8334C23.499 19.8984 23.3585 19.9416 23.1749 19.9416H22.2453C22.0399 19.9416 21.8994 19.9092 21.8128 19.8334C21.7263 19.7578 21.6507 19.6173 21.6075 19.4012L19.932 12.4292L18.2674 19.3902C18.2134 19.6065 18.1485 19.747 18.0621 19.8226C17.9756 19.8984 17.8243 19.9307 17.6298 19.9307H16.7001H16.7002ZM30.59 20.2226C30.0279 20.2226 29.4658 20.1577 28.9254 20.028C28.3849 19.8984 27.9635 19.7577 27.6824 19.5958C27.5094 19.4983 27.3904 19.3903 27.3473 19.293C27.3052 19.1976 27.2831 19.0946 27.2824 18.9903V18.4391C27.2824 18.2121 27.3689 18.104 27.5311 18.104C27.5972 18.1042 27.663 18.1152 27.7256 18.1365C27.7904 18.1582 27.8877 18.2013 27.9958 18.2445C28.3776 18.4124 28.7762 18.5392 29.1848 18.6228C29.6082 18.7088 30.0391 18.7522 30.4712 18.7525C31.1521 18.7525 31.6818 18.6337 32.0493 18.3959C32.4168 18.158 32.6114 17.8122 32.6114 17.369C32.6114 17.0664 32.5141 16.8177 32.3195 16.6123C32.1249 16.407 31.7574 16.2233 31.2278 16.0502L29.6604 15.5639C28.8714 15.3152 28.2877 14.9477 27.9309 14.4613C27.5743 13.9856 27.3905 13.4561 27.3905 12.894C27.3905 12.44 27.4878 12.04 27.6824 11.6941C27.8769 11.3483 28.1364 11.0457 28.4606 10.8078C28.7849 10.5592 29.1524 10.3754 29.5848 10.2458C30.0171 10.1161 30.471 10.062 30.9467 10.062C31.1845 10.062 31.4331 10.0729 31.6709 10.1052C31.9196 10.1376 32.1466 10.1809 32.3735 10.2241C32.5897 10.2781 32.7951 10.3322 32.9897 10.3971C33.1843 10.4619 33.3355 10.5268 33.4436 10.5916C33.595 10.6782 33.703 10.7646 33.7679 10.8619C33.8328 10.9484 33.8652 11.0672 33.8652 11.2186V11.7266C33.8652 11.9536 33.7788 12.0725 33.6166 12.0725C33.5301 12.0725 33.3896 12.0292 33.206 11.9427C32.5897 11.6617 31.8979 11.5212 31.1305 11.5212C30.5144 11.5212 30.0279 11.6185 29.6928 11.8239C29.3578 12.0292 29.1848 12.3427 29.1848 12.7858C29.1848 13.0886 29.2929 13.3479 29.5091 13.5534C29.7253 13.7587 30.1252 13.9641 30.6981 14.1478L32.233 14.6343C33.0112 14.883 33.5733 15.2288 33.9084 15.6719C34.2435 16.1151 34.4057 16.6231 34.4057 17.1852C34.4057 17.65 34.3083 18.0716 34.1246 18.4391C33.9301 18.8066 33.6706 19.1308 33.3355 19.3903C33.0004 19.6605 32.6005 19.8551 32.1357 19.9956C31.6493 20.147 31.1412 20.2226 30.59 20.2226Z" fill="#333333"/>
<path d="M32.6327 25.4758C29.0766 28.1025 23.9097 29.4969 19.4672 29.4969C13.2411 29.4969 7.63119 27.1945 3.39401 23.368C3.0589 23.0654 3.3615 22.6547 3.76138 22.8924C8.34451 25.5516 13.9977 27.1621 19.8456 27.1621C23.7909 27.1621 28.1253 26.3406 32.114 24.6544C32.7085 24.3841 33.2165 25.0436 32.6327 25.4758ZM34.1137 23.7896C33.6597 23.206 31.1087 23.5085 29.9521 23.6491C29.6061 23.6924 29.5521 23.3897 29.8656 23.1627C31.8977 21.7358 35.2378 22.1467 35.6269 22.6222C36.0161 23.1087 35.5187 26.4486 33.6164 28.0484C33.3246 28.2971 33.0436 28.1674 33.1732 27.8431C33.6055 26.7729 34.5676 24.3625 34.1137 23.7896Z" fill="#333333"/>
</svg>
