<svg width="90" height="27" viewBox="0 0 90 27" fill="none" xmlns="http://www.w3.org/2000/svg">
<path d="M19.9826 23.1761C23.5765 22.5412 26.5448 22.0159 26.5789 22.0086L26.6409 21.9955L23.2479 17.9597C21.3818 15.7399 19.855 13.9152 19.855 13.9047C19.855 13.8848 23.3585 4.23681 23.3782 4.20249C23.3848 4.19101 25.769 8.30737 29.1578 14.1808C32.3304 19.6796 34.9461 24.2134 34.9704 24.2559L35.0146 24.3332L24.2314 24.3318L13.4483 24.3304L19.9826 23.1761ZM61.3348 22.2C59.6933 22.0948 58.7387 21.1602 58.4857 19.4107C58.4184 18.9453 58.4182 18.9332 58.4113 15.912L58.4046 12.9879H59.1311H59.8575L59.8632 15.8162C59.8684 18.3653 59.8716 18.6642 59.896 18.8435C59.9949 19.5713 60.1918 20.0607 60.527 20.412C60.7953 20.6931 61.1094 20.8577 61.5442 20.9451C61.7493 20.9863 62.3328 20.9864 62.5198 20.9453C62.9606 20.8483 63.3139 20.6564 63.6255 20.3449C63.9808 19.9898 64.2435 19.4861 64.3707 18.9164L64.4135 18.7244L64.4183 15.8721L64.4231 13.0198H65.1647H65.9064V17.5037V21.9876H65.1724H64.4384V21.2761C64.4384 20.7928 64.4331 20.5665 64.4218 20.5702C64.4128 20.5733 64.3751 20.6309 64.3381 20.6984C64.0851 21.1597 63.6637 21.5816 63.2019 21.8357C62.6484 22.1404 62.0932 22.2487 61.3348 22.2ZM77.9952 22.1928C77.4158 22.1492 76.8057 21.95 76.307 21.6416C75.256 20.9915 74.6341 19.9198 74.452 18.4451C74.389 17.9348 74.3815 17.2493 74.434 16.8157C74.5515 15.8468 74.9323 14.8956 75.4744 14.2165C75.6134 14.0425 75.9287 13.7272 76.1028 13.5882C76.5729 13.2129 77.1227 12.9504 77.7065 12.8227C78.0466 12.7483 78.6456 12.7134 79.007 12.7469C79.9147 12.831 80.7467 13.2584 81.3122 13.9311C81.8868 14.6146 82.2026 15.5697 82.2429 16.7457C82.2492 16.93 82.2507 17.2531 82.2463 17.4638L82.2382 17.8467L79.0588 17.8507L75.8794 17.8548V17.9967C75.8794 18.4286 75.9844 18.9205 76.166 19.3391C76.3225 19.7 76.592 20.0941 76.8126 20.2849C77.265 20.6759 77.8187 20.91 78.4245 20.9664C78.6492 20.9872 79.2217 20.9653 79.4777 20.9259C80.2081 20.8137 80.9025 20.5272 81.4632 20.1068C81.5292 20.0573 81.5923 20.0111 81.6035 20.0041C81.6199 19.9938 81.6238 20.123 81.6234 20.6663L81.6228 21.3413L81.4726 21.4342C80.8382 21.8265 80.1115 22.0784 79.342 22.1728C79.1124 22.2009 78.2698 22.2134 77.9952 22.1928ZM80.7622 16.5001C80.7622 15.7766 80.4573 14.9729 80.0259 14.559C79.7179 14.2637 79.3457 14.0832 78.9032 14.0146C78.6939 13.9822 78.2527 13.9947 78.0319 14.0393C77.5654 14.1336 77.1794 14.3387 76.8428 14.6713C76.4886 15.0214 76.223 15.4465 76.0559 15.931C75.9959 16.1052 75.9256 16.3911 75.9038 16.5502L75.8934 16.626H78.3278H80.7622V16.5001ZM37.6342 21.9676C37.638 21.9566 38.7176 19.1203 40.0335 15.6647L42.4259 9.38173L43.1946 9.38168L43.9633 9.38163L44.0271 9.54519C44.222 10.045 48.8166 21.9739 48.8166 21.9801C48.8166 21.9842 48.4486 21.9875 47.9988 21.9874L47.181 21.9872L46.5188 20.2242L45.8566 18.4611L43.1903 18.461L40.5239 18.461L40.5007 18.5209C40.488 18.5538 40.2051 19.3471 39.872 20.2838L39.2665 21.9869L38.447 21.9872C37.7983 21.9874 37.6289 21.9834 37.6342 21.9676ZM45.3699 17.1156C45.3699 17.1128 44.9243 15.9047 44.3796 14.4309C43.3606 11.6736 43.3036 11.5077 43.2231 11.0651C43.1854 10.8575 43.1663 10.8517 43.1439 11.0411C43.1279 11.1765 43.0584 11.4795 43.0049 11.6475C42.9783 11.7309 42.5194 12.9903 41.9851 14.4462C41.4509 15.9022 41.0137 17.0995 41.0137 17.107C41.0137 17.1145 41.9939 17.1207 43.1918 17.1207C44.3898 17.1207 45.3699 17.1184 45.3699 17.1156ZM49.3113 21.7579V21.5283L51.9678 17.8764L54.6243 14.2245L52.2191 14.2165L49.8139 14.2086L49.8097 13.5982L49.8056 12.9879H53.2843H56.7631V13.194V13.4002L54.1063 17.072C52.6451 19.0914 51.4495 20.7471 51.4495 20.7513C51.4495 20.7554 52.6307 20.7588 54.0744 20.7588H56.6993V21.3732V21.9875H53.0053H49.3113V21.7579ZM68.8052 21.9769C68.7994 21.971 68.7946 19.9461 68.7946 17.4771V12.9879H69.5206H70.2466V13.9134C70.2466 14.4224 70.2528 14.8389 70.2604 14.8389C70.268 14.8389 70.3033 14.7555 70.3389 14.6537C70.5022 14.187 70.7852 13.751 71.15 13.4044C71.4785 13.0922 71.854 12.9056 72.2971 12.8341C72.4216 12.814 72.5269 12.8102 72.7758 12.8167C73.0884 12.8248 73.2519 12.8477 73.442 12.9098L73.5018 12.9294V13.683V14.4366L73.3303 14.3508C73.0273 14.1991 72.7283 14.1391 72.3689 14.1577C72.135 14.1699 71.9815 14.1999 71.7945 14.2701C71.4097 14.4145 71.0976 14.6694 70.8795 15.0173C70.5638 15.521 70.3386 16.1684 70.2722 16.7634C70.2603 16.8702 70.2533 17.7399 70.2505 19.4544L70.2464 21.9875H69.5311C69.1377 21.9875 68.8111 21.9827 68.8052 21.9769ZM7.04163 21.9454C7.04163 21.9397 8.64038 19.1644 10.5944 15.778L14.1472 9.62097L18.2876 6.14637C20.5648 4.23534 22.434 2.66944 22.4415 2.66658C22.449 2.66373 22.4191 2.73912 22.375 2.83413C22.3309 2.92914 20.3077 7.26854 17.8791 12.4772L13.4635 21.9476L10.2525 21.9517C8.48654 21.9539 7.04163 21.951 7.04163 21.9454Z" fill="#333333"/>
</svg>
