<svg width="35" height="35" viewBox="0 0 35 35" fill="none" xmlns="http://www.w3.org/2000/svg">
<path d="M22.3138 12.4779L24.8491 9.94252L25.0181 8.87498C20.398 4.67396 13.0538 5.15031 8.88893 9.86892C7.73218 11.1795 6.87393 12.8134 6.41626 14.5006L7.3243 14.3727L12.3949 13.5364L12.7863 13.1362C15.0418 10.659 18.8555 10.3258 21.4598 12.4334L22.3138 12.4779Z" fill="#333333"/>
<path d="M28.4608 14.426C27.8781 12.28 26.6816 10.3507 25.0181 8.875L21.4598 12.4333C22.2014 13.0393 22.7957 13.8057 23.1979 14.6748C23.6001 15.544 23.7997 16.4931 23.7816 17.4506V18.0822C25.5305 18.0822 26.9486 19.5001 26.9486 21.2491C26.9486 22.9981 25.5306 24.3805 23.7816 24.3805H17.4389L16.8162 25.0566V28.8551L17.4389 29.451H23.7815C28.3308 29.4865 32.0476 25.8629 32.0831 21.3135C32.0936 19.9559 31.7685 18.6167 31.1365 17.4151C30.5046 16.2134 29.5854 15.1866 28.4608 14.426Z" fill="#333333"/>
<path d="M11.105 29.451H17.4388V24.3803H11.105C10.6566 24.3802 10.2136 24.2832 9.80629 24.0957L8.9077 24.3714L6.3546 26.9068L6.1322 27.7697C7.56399 28.8508 9.31091 29.4587 11.105 29.451Z" fill="#333333"/>
<path d="M11.105 13.0025C6.55566 13.0297 2.88966 16.7398 2.91678 21.2892C2.92425 22.5429 3.21778 23.7783 3.775 24.9013C4.33221 26.0244 5.13841 27.0054 6.13217 27.7697L9.80625 24.0958C8.21234 23.3756 7.50391 21.4998 8.22408 19.9059C8.94413 18.312 10.8201 17.6035 12.4139 18.3236C13.1163 18.6409 13.6788 19.2035 13.9961 19.9059L17.6702 16.2318C16.8991 15.2236 15.9052 14.4075 14.7662 13.8473C13.6273 13.2871 12.3742 12.998 11.105 13.0025Z" fill="#333333"/>
</svg>
