<svg width="203" height="48" viewBox="0 0 203 48" fill="none" xmlns="http://www.w3.org/2000/svg">
<path fill-rule="evenodd" clip-rule="evenodd" d="M21.2893 29.0842C20.0138 25.24 25.1069 19.6774 32.6648 16.6597C38.6371 14.2753 44.3588 14.1951 47.1269 16.1625C47.1109 16.1072 47.0951 16.0519 47.077 15.9972C45.5256 11.3211 36.4533 10.6507 26.8137 14.4998C17.1741 18.3486 10.6169 25.2594 12.1684 29.9353C13.5706 34.1612 21.1155 35.1148 29.6703 32.4181C25.4046 32.7274 22.1142 31.5713 21.2893 29.0842Z" fill="#008AC4"/>
<path fill-rule="evenodd" clip-rule="evenodd" d="M44.6288 18.7827C44.164 20.6769 41.8327 22.9213 38.6381 24.3373C34.5954 26.1292 30.7041 25.9146 29.947 23.8586C29.4571 22.5285 30.4001 20.7534 32.2209 19.1806C27.8829 21.4985 25.1583 24.885 25.991 27.1451C26.9121 29.6465 31.8389 29.8211 36.9951 27.5361C42.1513 25.2507 45.5846 21.3703 44.6633 18.8693C44.6527 18.8398 44.6407 18.8113 44.6288 18.7827Z" fill="#008AC4"/>
<path fill-rule="evenodd" clip-rule="evenodd" d="M91.5874 23.1084C91.5874 24.3492 91.2132 25.4041 90.4654 26.2725C89.718 27.141 88.8163 27.575 87.7605 27.575H87.0254C85.9572 27.575 85.0492 27.141 84.3015 26.2725C83.5537 25.4041 83.1801 24.3492 83.1801 23.1084V22.9018C83.1801 21.661 83.5537 20.6064 84.3015 19.7377C85.0492 18.8693 85.9572 18.4353 87.0254 18.4353H87.7605C88.8163 18.4353 89.718 18.8693 90.4654 19.7377C91.2132 20.6064 91.5874 21.661 91.5874 22.9018V23.1084ZM88.0809 16.3877H86.705C85.1593 16.3877 83.8427 16.9843 82.7557 18.1765C81.6688 19.369 81.1254 20.813 81.1254 22.5088V23.4185C81.1254 25.1143 81.6688 26.5586 82.7557 27.7508C83.8427 28.9437 85.1593 29.5396 86.705 29.5396H88.0809C89.6266 29.5396 90.943 28.9437 92.0302 27.7508C93.1172 26.5586 93.6609 25.1143 93.6609 23.4185V22.5088C93.6609 20.813 93.1172 19.369 92.0302 18.1765C90.943 16.9843 89.6266 16.3877 88.0809 16.3877Z" fill="#191919"/>
<path fill-rule="evenodd" clip-rule="evenodd" d="M119.052 25.1769C119.052 25.7559 118.879 26.2523 118.534 26.6657C118.188 27.0793 117.77 27.2858 117.28 27.2858H112.671H110.909H110.645V26.9757V25.4227V20.5263V18.9939V18.6628H110.909H112.671H117.28C117.77 18.6628 118.188 18.8733 118.534 19.2937C118.879 19.7144 119.052 20.214 119.052 20.7927V25.1769ZM117.468 16.4087H110.845H108.854H108.59V16.7398V18.14V27.8093V29.2298V29.5399H108.854H110.845H117.468C118.474 29.5399 119.335 29.1129 120.051 28.2582C120.767 27.4034 121.125 26.3691 121.125 25.1563V20.7927C121.125 19.5801 120.767 18.5458 120.051 17.6911C119.335 16.8364 118.474 16.4087 117.468 16.4087Z" fill="#191919"/>
<path fill-rule="evenodd" clip-rule="evenodd" d="M79.1105 27.2857H72.0184C71.6161 27.2857 71.2738 27.1172 70.9913 26.7794C70.7083 26.4414 70.5669 26.0316 70.5669 25.5489V18.7289V16.7397V16.3879C69.7823 16.3797 69.1015 16.6054 68.5125 16.9787V18.7289V25.7971C68.5125 26.8308 68.8168 27.7134 69.4264 28.4439C70.0358 29.1747 70.7742 29.5399 71.6414 29.5399H79.1105H80.9725H81.2363V29.209V27.5959V27.2857H80.9725H79.1105Z" fill="#191919"/>
<path fill-rule="evenodd" clip-rule="evenodd" d="M106.727 16.4083C106.114 16.47 105.57 16.6772 105.088 16.9843V19.5983L105.077 23.129C105.077 24.3565 104.703 25.4041 103.956 26.2722C103.208 27.1406 102.306 27.575 101.251 27.575H100.515C99.4598 27.575 98.5579 27.1443 97.8103 26.2826C97.0626 25.4211 96.6824 24.3771 96.67 23.1497V19.2709V16.7394V16.3877H94.6152V16.7394V19.2709V23.4185C94.6152 25.1143 95.1587 26.5586 96.2459 27.7508C97.3324 28.9437 98.6491 29.5396 100.195 29.5396H101.571C103.117 29.5396 104.433 28.9437 105.52 27.7508C106.607 26.5586 107.151 25.1143 107.151 23.4185V19.6004V16.7394V16.4083H106.887H106.727Z" fill="#191919"/>
<path fill-rule="evenodd" clip-rule="evenodd" d="M64.8522 16.4087H60.4703C58.9627 16.4087 57.6738 17.0469 56.6063 18.3214C55.5378 19.5968 55.004 21.1374 55.004 22.9435V23.0055C55.004 24.8115 55.5378 26.3521 56.6063 27.6272C57.6738 28.9027 58.9627 29.5399 60.4703 29.5399H64.8522H67.2754H67.5395V29.2092V27.6169V27.2858H67.2754H64.8522H60.659C59.6661 27.2858 58.8179 26.8655 58.1142 26.0247C57.4103 25.1839 57.0587 24.1704 57.0587 22.9848C57.0587 21.7856 57.3979 20.7653 58.0765 19.9242C58.755 19.0835 59.6158 18.6628 60.659 18.6628H64.8522H67.2754H67.5395V18.3527V16.7398V16.4087H67.2754H64.8522Z" fill="#191919"/>
<path fill-rule="evenodd" clip-rule="evenodd" d="M146.867 16.4087H138.423H137.349H136.763V16.7398V19.5303V28.1327V29.2092V29.5466H139.82V29.5399H147.983H149.074H149.45V29.1473V27.6996V27.2858H149.091H147.983H139.745H139.082H138.819V24.1014H139.745H144.181H145.661H146.038V23.7086V23.2433V22.7157V22.1711V21.8679H145.68H144.181H141.754H139.082H138.819V18.9939V18.6628H139.082H141.754H146.867H149.186H149.563V16.4087H149.186H146.867Z" fill="#191919"/>
<path fill-rule="evenodd" clip-rule="evenodd" d="M180.314 18.6628H180.578H183.249H188.362H190.681H191.059V16.4087H190.681H188.362H179.919H178.844H178.259V16.7398V19.5303V28.1327V29.2091V29.5469H181.315V29.54H189.479H190.569H190.945V29.1472V27.6995V27.2859H190.587H189.479H181.24H180.578H180.314V24.1013H181.24H185.677H187.156H187.534V23.7086V23.2436V22.7157V22.1711V21.8679H187.176H185.677H183.249H180.578H180.314V18.9939V18.6628Z" fill="#191919"/>
<path fill-rule="evenodd" clip-rule="evenodd" d="M173.795 16.4087H167.311C166.456 16.4087 165.728 16.7708 165.124 17.4943C164.521 18.2184 164.219 19.0905 164.219 20.1105V20.3996C164.219 21.4336 164.521 22.3126 165.124 23.0361C165.728 23.7603 166.456 24.122 167.311 24.122L173.852 24.1014C174.115 24.1014 174.335 24.1982 174.512 24.3908C174.687 24.5844 174.801 24.7699 174.851 24.9494C174.901 25.1283 174.932 25.3005 174.945 25.4664C174.957 25.5767 174.951 25.7179 174.926 25.8901C174.901 26.0627 174.857 26.2622 174.795 26.49C174.732 26.7173 174.609 26.9067 174.427 27.0587C174.244 27.2106 174.021 27.2858 173.757 27.2858H165.502H164.502H164.219V27.6375V29.2298V29.5399H164.483H165.502H174.021C174.838 29.5399 175.533 29.1749 176.105 28.4441C176.677 27.7135 176.962 26.8311 176.962 25.7972V25.5903C176.962 25.3561 176.947 25.1079 176.914 24.8459C176.883 24.5844 176.805 24.2636 176.679 23.8842C176.554 23.5054 176.381 23.1743 176.161 22.8915C175.941 22.6091 175.624 22.3679 175.209 22.168C174.795 21.9685 174.31 21.8679 173.757 21.8679H167.612C167.235 21.8679 166.917 21.7097 166.661 21.3926C166.403 21.0755 166.274 20.6964 166.274 20.255C166.274 19.8137 166.403 19.4383 166.661 19.1281C166.917 18.818 167.235 18.6628 167.612 18.6628H173.795H176.679H176.966V16.4087H176.679H173.795Z" fill="#191919"/>
<path fill-rule="evenodd" clip-rule="evenodd" d="M159.958 23.8739H154.921H152.852H152.662V23.6464V21.9168V21.6869V18.8903V18.6628H152.852H155.278H160.052C160.467 18.6628 160.784 18.8976 161.004 19.366C161.224 19.8349 161.334 20.4692 161.334 21.2683C161.334 21.4892 161.315 21.7306 161.278 21.9922C161.239 22.2543 161.174 22.5334 161.079 22.8296C160.985 23.1264 160.841 23.3745 160.646 23.5741C160.451 23.7742 160.222 23.8739 159.958 23.8739ZM160.673 26.2523C160.648 26.2106 160.644 26.1696 160.655 26.1279C160.667 26.0867 160.694 26.0591 160.731 26.045C161.233 25.9212 161.67 25.6626 162.041 25.2699C162.411 24.8768 162.685 24.4257 162.861 23.9155C163.037 23.4055 163.163 22.9298 163.238 22.4882C163.314 22.0474 163.351 21.6404 163.351 21.2683C163.351 19.8073 163.059 18.6318 162.474 17.7427C161.89 16.8534 161.146 16.4087 160.241 16.4087H152.157H150.797H150.608V16.6362V19.0826V27.4022V29.3334V29.5399H150.797H152.399H152.662V29.2298V28.1564V27.4022V26.4381V26.1137H152.898C152.909 26.1125 152.916 26.1073 152.927 26.1073L154.241 26.1137H154.244L157.262 26.1279C157.45 26.1279 157.621 26.2106 157.772 26.3761L159.335 28.1816L159.57 28.4534L160.507 29.5399H160.863H161.358H162.361H162.955H163.432L162.78 28.7964L160.673 26.2523Z" fill="#191919"/>
<path fill-rule="evenodd" clip-rule="evenodd" d="M135.758 16.4087C134.796 16.5053 134 16.9615 133.351 17.5997L130.502 25.7766C130.351 26.2043 130.112 26.5483 129.785 26.8101C129.459 27.0723 129.101 27.2106 128.711 27.2239C128.322 27.2106 127.964 27.0723 127.637 26.8101C127.31 26.5483 127.071 26.2043 126.921 25.7766L123.657 16.4087H123.377H123.126H121.828H121.492H121.24L121.34 16.6921L121.341 16.6982L124.847 26.5623C125.274 27.7755 125.953 28.6232 126.883 29.1059C127.504 29.4187 128.113 29.5591 128.711 29.5391C129.31 29.5591 129.919 29.4187 130.54 29.1059C131.47 28.6232 132.148 27.7755 132.576 26.5623L136.082 16.6982C136.083 16.696 136.083 16.6921 136.083 16.6921L136.182 16.4087H135.931H135.758Z" fill="#191919"/>
</svg>
